<svg width="163" height="23" viewBox="0 0 163 23" fill="none" xmlns="http://www.w3.org/2000/svg">
<line y1="-1" x2="25.5026" y2="-0.102939" transform="matrix(0.654405 -0.756144 0.520356 0.853949 1.50934 21.6418)" stroke="#727272" stroke-width="2"/>
<line y1="-1" x2="25.5026" y2="-0.102939" transform="matrix(0.654405 -0.756144 0.520356 0.853949 1.50934 21.6418)" stroke="#727272" stroke-width="2"/>
<line y1="-1" x2="25.5026" y2="-0.102939" transform="matrix(0.654405 -0.756144 0.520356 0.853949 33.462 21.6418)" stroke="#727272" stroke-width="2"/>
<line y1="-1" x2="25.5026" y2="-0.102939" transform="matrix(0.654405 -0.756144 0.520356 0.853949 33.462 21.6418)" stroke="#727272" stroke-width="2"/>
<line y1="-1" x2="25.5026" y2="-0.102939" transform="matrix(0.654405 -0.756144 0.520356 0.853949 65.4148 21.6418)" stroke="#727272" stroke-width="2"/>
<line y1="-1" x2="25.5026" y2="-0.102939" transform="matrix(0.654405 -0.756144 0.520356 0.853949 65.4148 21.6418)" stroke="#727272" stroke-width="2"/>
<line y1="-1" x2="25.5026" y2="-0.102939" transform="matrix(0.654405 -0.756144 0.520356 0.853949 97.3676 21.6418)" stroke="#727272" stroke-width="2"/>
<line y1="-1" x2="25.5026" y2="-0.102939" transform="matrix(0.654405 -0.756144 0.520356 0.853949 97.3676 21.6418)" stroke="#727272" stroke-width="2"/>
<line y1="-1" x2="25.5026" y2="-0.102939" transform="matrix(0.654405 -0.756144 0.520356 0.853949 129.32 21.6418)" stroke="#727272" stroke-width="2"/>
<line y1="-1" x2="25.5026" y2="-0.102939" transform="matrix(0.654405 -0.756144 0.520356 0.853949 129.32 21.6418)" stroke="#727272" stroke-width="2"/>
<line y1="-1" x2="25.5026" y2="-0.102939" transform="matrix(0.654405 0.756144 -0.520356 0.853949 16.5001 2.35818)" stroke="#727272" stroke-width="2"/>
<line y1="-1" x2="25.5026" y2="-0.102939" transform="matrix(0.654405 0.756144 -0.520356 0.853949 16.5001 2.35818)" stroke="#727272" stroke-width="2"/>
<line y1="-1" x2="25.5026" y2="-0.102939" transform="matrix(0.654405 0.756144 -0.520356 0.853949 48.4528 2.35818)" stroke="#727272" stroke-width="2"/>
<line y1="-1" x2="25.5026" y2="-0.102939" transform="matrix(0.654405 0.756144 -0.520356 0.853949 48.4528 2.35818)" stroke="#727272" stroke-width="2"/>
<line y1="-1" x2="25.5026" y2="-0.102939" transform="matrix(0.654405 0.756144 -0.520356 0.853949 80.4055 2.35818)" stroke="#727272" stroke-width="2"/>
<line y1="-1" x2="25.5026" y2="-0.102939" transform="matrix(0.654405 0.756144 -0.520356 0.853949 80.4055 2.35818)" stroke="#727272" stroke-width="2"/>
<line y1="-1" x2="25.5026" y2="-0.102939" transform="matrix(0.654405 0.756144 -0.520356 0.853949 112.358 2.35818)" stroke="#727272" stroke-width="2"/>
<line y1="-1" x2="25.5026" y2="-0.102939" transform="matrix(0.654405 0.756144 -0.520356 0.853949 112.358 2.35818)" stroke="#727272" stroke-width="2"/>
<line y1="-1" x2="25.5026" y2="-0.102939" transform="matrix(0.654405 0.756144 -0.520356 0.853949 144.311 2.35818)" stroke="#727272" stroke-width="2"/>
<line y1="-1" x2="25.5026" y2="-0.102939" transform="matrix(0.654405 0.756144 -0.520356 0.853949 144.311 2.35818)" stroke="#727272" stroke-width="2"/>
</svg>
